<?xml version="1.0" encoding="UTF-8"?>
<svg id="Layer_1" data-name="Layer 1" xmlns="http://www.w3.org/2000/svg" viewBox="0 0 2006.56 2006.56">
  <defs>
    <style>
      .cls-1 {
        fill: #e2dacd;
      }
    </style>
  </defs>
  <path class="cls-1" d="M1972.88,847.95v410.74c0,13.99-11.34,25.33-25.33,25.33h-33.93c-13.99,0-25.33-11.34-25.33-25.33v-153.33c0-14-11.35-25.34-25.34-25.34h-70.66c-14,0-25.34,11.35-25.34,25.34v153.33c0,13.99-11.34,25.33-25.33,25.33h-180.66c-13.99,0-25.34-11.35-25.34-25.34v-260.88c0-13.99,11.34-25.33,25.33-25.33h24c11.16,0,20.63,7.2,24,17.21v102.48c0,13.99,11.34,25.33,25.33,25.33h26.01c13.99,0,25.33-11.34,25.33-25.33v-94.36c0-13.99,11.34-25.33,25.33-25.33h90.67c13.99,0,25.33-11.34,25.33-25.33v-13.34c0-13.99-11.34-25.33-25.33-25.33h-266v-81.03h415.18c4.87,0,9.66,1.56,13.46,4.61,2.82,2.26,5.15,5.09,6.82,8.33,1.21,2.33,1.79,4.94,1.79,7.57Z"/>
  <path class="cls-1" d="M845.07,827.44H105.03c-21.88,0-40.4,17.03-41.26,38.89-.02.55-.03,1.1-.03,1.66s.01,1.1.03,1.65c.86,21.82,19.34,38.83,41.18,38.83h235.93c13.99,0,25.33,11.34,25.33,25.33v13.34c0,13.99-11.34,25.33-25.33,25.33H88.88c-13.99,0-25.33,11.34-25.33,25.33v260.89c0,13.99,11.34,25.33,25.33,25.33h409.33c13.99,0,25.34-11.35,25.34-25.34v-154.05c0-13.59,11.02-24.61,24.61-24.61h34.78c13.59,0,24.61,11.02,24.61,24.61v80.12c0,13.59-11.02,24.61-24.61,24.61h-27.39v74.66h114.66c13.99,0,25.34-11.35,25.34-25.34v-263.36c0-12.62-10.23-22.85-22.85-22.85h-123.82c-13.99,0-25.33-11.34-25.33-25.33v-13.34c0-13.99,11.34-25.33,25.33-25.33h196.11c13.93,0,25.22,11.29,25.22,25.22v325c0,13.99,11.34,25.33,25.33,25.33h49.34c13.99,0,25.33-11.34,25.33-25.33v-407.12c0-3.78-.79-7.55-2.56-10.89-.2-.38-.41-.76-.64-1.13-4.56-7.65-13.04-12.11-21.95-12.11ZM366.21,1156.69c0,13.99-11.34,25.33-25.33,25.33h-170.67c-13.99,0-25.33-11.34-25.33-25.33v-51.33c0-14,11.34-25.34,25.33-25.34h170.67c13.99,0,25.33,11.34,25.33,25.34v51.33Z"/>
  <path class="cls-1" d="M939.69,827.44c-9.16,0-17.83,4.73-22.29,12.74-2.04,3.66-3.2,7.88-3.2,12.37v30.58c.03,11.19,7.26,20.7,17.31,24.1,2.6.88,5.35,1.24,8.09,1.24h198c13.99,0,25.33,11.34,25.33,25.33v13.34c0,13.99-11.34,25.33-25.33,25.33h-198.08c-13.99,0-25.33,11.34-25.33,25.33v260.89c0,13.99,11.34,25.33,25.33,25.33h356.75c13.99,0,25.33-11.34,25.33-25.33v-324.89c0-13.99,11.34-25.33,25.33-25.33h17.34c13.99,0,25.33,11.34,25.33,25.33v324.89c0,13.99,11.34,25.33,25.33,25.33h44c13.99,0,25.34-11.35,25.34-25.34v-431.24h-544.6ZM1046.57,1080.02h124.37c14,0,25.35,11.68,25.35,25.67v50.83c0,13.99-11.34,25.34-25.34,25.34-2.8,0-8,.16-8,.16h-121.4c-13.99,0-25.34-11.34-25.34-25.33v-46.86c0-31,30.36-29.81,30.36-29.81Z"/>
  <rect class="cls-1" x="1797.97" y="1227.04" width="56.32" height="56.32" rx="19.88" ry="19.88"/>
</svg>